# xmcd CD database file
#
# Track frame offsets:
#	150
#	5327
#	24400
#	49545
#	73732
#	96302
#	118808
#	141012
#	161943
#	177049
#	199619
#	216484
#
# Disc length: 3000 seconds
#
# Revision: 8
# Processed by: cddbd v1.5PL3 Copyright (c) Steve Scherf et al.
# Submitted via: CDex 1.51
#
DISCID=a90bb60c
DTITLE=Malice Mizer - Merveilles
DYEAR=1998
DGENRE=JPop
TTITLE0=~de merveilles
TTITLE1=Syunikiss ~Nidome no Aitou~
TTITLE2=veru eru ~Kuhaku no Toki no Nakade~
TTITLE3=ILLUMINATI
TTITLE4=Brise
TTITLE5=Yuge ~Sugisarishi Kaze to Tomo ni~
TTITLE6=au revoir
TTITLE7=Ju te veux
TTITLE8=S-CONSCIOUS
TTITLE9=Le ciel
TTITLE10=Gekka no Yasoukyoku
TTITLE11=Bois de merveilles
EXTD=YEAR: 1998
EXTT0=
EXTT1=
EXTT2=
EXTT3=
EXTT4=
EXTT5=
EXTT6=
EXTT7=
EXTT8=
EXTT9=
EXTT10=
EXTT11=
PLAYORDER=
